{
	"asset":{
		"generator":"Khronos glTF Blender I/O v5.0.21",
		"version":"2.0"
	},
	"scene":0,
	"scenes":[
		{
			"name":"Scene",
			"nodes":[
				2
			]
		}
	],
	"nodes":[
		{
			"mesh":0,
			"name":"BAN.001",
			"rotation":[
				0.7071068286895752,
				0,
				0,
				0.7071068286895752
			],
			"scale":[
				1.2252006530761719,
				1.2851569652557373,
				1.225041389465332
			],
			"translation":[
				-0.19283604621887207,
				-0.8950525522232056,
				0.9431672692298889
			]
		},
		{
			"mesh":1,
			"name":"BAN.002",
			"rotation":[
				0.7071068286895752,
				0,
				0,
				0.7071068286895752
			],
			"scale":[
				1.2252006530761719,
				1.2851569652557373,
				1.225041389465332
			],
			"translation":[
				-2.8340320587158203,
				-0.8950525522232056,
				0.9331979751586914
			]
		},
		{
			"children":[
				0,
				1
			],
			"mesh":2,
			"name":"Kepala",
			"translation":[
				1.22062087059021,
				0.2122340202331543,
				0
			]
		}
	],
	"materials":[
		{
			"doubleSided":true,
			"name":"Material",
			"pbrMetallicRoughness":{
				"baseColorFactor":[
					0,
					0,
					0,
					1
				],
				"metallicFactor":0,
				"roughnessFactor":0.5
			}
		},
		{
			"doubleSided":true,
			"name":"Metal",
			"pbrMetallicRoughness":{
				"baseColorFactor":[
					0.4898499846458435,
					0.4898499846458435,
					0.4898499846458435,
					1
				],
				"roughnessFactor":0.5
			}
		},
		{
			"doubleSided":true,
			"name":"Hitam Baja",
			"pbrMetallicRoughness":{
				"baseColorFactor":[
					0.00790735799819231,
					0.00790735799819231,
					0.00790735799819231,
					1
				],
				"metallicFactor":0,
				"roughnessFactor":0.5
			}
		},
		{
			"doubleSided":true,
			"name":"Hitam Plastik",
			"pbrMetallicRoughness":{
				"baseColorFactor":[
					0.024738114327192307,
					0.024738114327192307,
					0.024738114327192307,
					1
				],
				"metallicFactor":0,
				"roughnessFactor":0.5
			}
		},
		{
			"doubleSided":true,
			"name":"Lampu Putih"
		},
		{
			"doubleSided":true,
			"emissiveFactor":[
				0.47439502251458876,
				0.05996398891345711,
				0.014396408541833439
			],
			"name":"LAMPU KUNING",
			"pbrMetallicRoughness":{
				"baseColorFactor":[
					0,
					0,
					0,
					1
				]
			}
		},
		{
			"doubleSided":true,
			"emissiveFactor":[
				0.23286165669560432,
				0,
				0.0037435119156725705
			],
			"name":"Merah.001",
			"pbrMetallicRoughness":{
				"baseColorFactor":[
					0,
					0,
					0,
					1
				]
			}
		},
		{
			"doubleSided":true,
			"name":"Kaca.001",
			"pbrMetallicRoughness":{
				"baseColorFactor":[
					0.010404327884316444,
					0.010290974751114845,
					0.014669581316411495,
					1
				],
				"metallicFactor":0,
				"roughnessFactor":0.0714285746216774
			}
		}
	],
	"meshes":[
		{
			"name":"Cylinder.023",
			"primitives":[
				{
					"attributes":{
						"POSITION":0,
						"NORMAL":1,
						"TEXCOORD_0":2
					},
					"indices":3,
					"material":0
				},
				{
					"attributes":{
						"POSITION":4,
						"NORMAL":5,
						"TEXCOORD_0":6
					},
					"indices":7,
					"material":1
				}
			]
		},
		{
			"name":"Cylinder.020",
			"primitives":[
				{
					"attributes":{
						"POSITION":8,
						"NORMAL":9,
						"TEXCOORD_0":10
					},
					"indices":11,
					"material":0
				},
				{
					"attributes":{
						"POSITION":12,
						"NORMAL":13,
						"TEXCOORD_0":14
					},
					"indices":7,
					"material":1
				}
			]
		},
		{
			"name":"Cube.001",
			"primitives":[
				{
					"attributes":{
						"POSITION":15,
						"NORMAL":16,
						"TEXCOORD_0":17
					},
					"indices":18,
					"material":2
				},
				{
					"attributes":{
						"POSITION":19,
						"NORMAL":20,
						"TEXCOORD_0":21
					},
					"indices":22,
					"material":3
				},
				{
					"attributes":{
						"POSITION":23,
						"NORMAL":24,
						"TEXCOORD_0":25
					},
					"indices":26,
					"material":1
				},
				{
					"attributes":{
						"POSITION":27,
						"NORMAL":28,
						"TEXCOORD_0":29
					},
					"indices":30,
					"material":4
				},
				{
					"attributes":{
						"POSITION":31,
						"NORMAL":32,
						"TEXCOORD_0":33
					},
					"indices":34,
					"material":5
				},
				{
					"attributes":{
						"POSITION":35,
						"NORMAL":36,
						"TEXCOORD_0":37
					},
					"indices":38,
					"material":6
				},
				{
					"attributes":{
						"POSITION":39,
						"NORMAL":40,
						"TEXCOORD_0":41
					},
					"indices":42,
					"material":7
				}
			]
		}
	],
	"accessors":[
		{
			"bufferView":0,
			"componentType":5126,
			"count":94232,
			"max":[
				0.31099626421928406,
				0.09320173412561417,
				0.31101465225219727
			],
			"min":[
				-0.31094875931739807,
				-1.560987114906311,
				-0.3110114336013794
			],
			"type":"VEC3"
		},
		{
			"bufferView":1,
			"componentType":5126,
			"count":94232,
			"type":"VEC3"
		},
		{
			"bufferView":2,
			"componentType":5126,
			"count":94232,
			"type":"VEC2"
		},
		{
			"bufferView":3,
			"componentType":5125,
			"count":183480,
			"type":"SCALAR"
		},
		{
			"bufferView":4,
			"componentType":5126,
			"count":12106,
			"max":[
				0.19367416203022003,
				0.08958753943443298,
				0.19369933009147644
			],
			"min":[
				-0.19367414712905884,
				-1.5573729276657104,
				-0.19369952380657196
			],
			"type":"VEC3"
		},
		{
			"bufferView":5,
			"componentType":5126,
			"count":12106,
			"type":"VEC3"
		},
		{
			"bufferView":6,
			"componentType":5126,
			"count":12106,
			"type":"VEC2"
		},
		{
			"bufferView":7,
			"componentType":5123,
			"count":42168,
			"type":"SCALAR"
		},
		{
			"bufferView":8,
			"componentType":5126,
			"count":94220,
			"max":[
				0.31099626421928406,
				0.09320173412561417,
				0.31101465225219727
			],
			"min":[
				-0.31094875931739807,
				-1.545472502708435,
				-0.3110114336013794
			],
			"type":"VEC3"
		},
		{
			"bufferView":9,
			"componentType":5126,
			"count":94220,
			"type":"VEC3"
		},
		{
			"bufferView":10,
			"componentType":5126,
			"count":94220,
			"type":"VEC2"
		},
		{
			"bufferView":11,
			"componentType":5125,
			"count":183480,
			"type":"SCALAR"
		},
		{
			"bufferView":12,
			"componentType":5126,
			"count":12106,
			"max":[
				0.19367416203022003,
				0.08958753943443298,
				0.19369933009147644
			],
			"min":[
				-0.19367414712905884,
				-1.5418583154678345,
				-0.19369952380657196
			],
			"type":"VEC3"
		},
		{
			"bufferView":13,
			"componentType":5126,
			"count":12106,
			"type":"VEC3"
		},
		{
			"bufferView":14,
			"componentType":5126,
			"count":12106,
			"type":"VEC2"
		},
		{
			"bufferView":15,
			"componentType":5126,
			"count":20003,
			"max":[
				0.842626690864563,
				0.8490607142448425,
				1.1288608312606812
			],
			"min":[
				-4.119848728179932,
				-1.095946192741394,
				-1.1288608312606812
			],
			"type":"VEC3"
		},
		{
			"bufferView":16,
			"componentType":5126,
			"count":20003,
			"type":"VEC3"
		},
		{
			"bufferView":17,
			"componentType":5126,
			"count":20003,
			"type":"VEC2"
		},
		{
			"bufferView":18,
			"componentType":5123,
			"count":50310,
			"type":"SCALAR"
		},
		{
			"bufferView":19,
			"componentType":5126,
			"count":4906,
			"max":[
				0.8693292140960693,
				0.42617782950401306,
				1.229051113128662
			],
			"min":[
				-0.8255369663238525,
				-0.8218104243278503,
				-1.229051113128662
			],
			"type":"VEC3"
		},
		{
			"bufferView":20,
			"componentType":5126,
			"count":4906,
			"type":"VEC3"
		},
		{
			"bufferView":21,
			"componentType":5126,
			"count":4906,
			"type":"VEC2"
		},
		{
			"bufferView":22,
			"componentType":5123,
			"count":10617,
			"type":"SCALAR"
		},
		{
			"bufferView":23,
			"componentType":5126,
			"count":3131,
			"max":[
				0.8452959656715393,
				0.06984803825616837,
				1.1094398498535156
			],
			"min":[
				-0.5613813996315002,
				-0.3824347257614136,
				-1.1094399690628052
			],
			"type":"VEC3"
		},
		{
			"bufferView":24,
			"componentType":5126,
			"count":3131,
			"type":"VEC3"
		},
		{
			"bufferView":25,
			"componentType":5126,
			"count":3131,
			"type":"VEC2"
		},
		{
			"bufferView":26,
			"componentType":5123,
			"count":10392,
			"type":"SCALAR"
		},
		{
			"bufferView":27,
			"componentType":5126,
			"count":804,
			"max":[
				0.8298956155776978,
				-0.1283593475818634,
				1.0972365140914917
			],
			"min":[
				-4.120362281799316,
				-0.6669529676437378,
				-1.0972365140914917
			],
			"type":"VEC3"
		},
		{
			"bufferView":28,
			"componentType":5126,
			"count":804,
			"type":"VEC3"
		},
		{
			"bufferView":29,
			"componentType":5126,
			"count":804,
			"type":"VEC2"
		},
		{
			"bufferView":30,
			"componentType":5123,
			"count":3792,
			"type":"SCALAR"
		},
		{
			"bufferView":31,
			"componentType":5126,
			"count":436,
			"max":[
				0.8184993267059326,
				-0.24110715091228485,
				1.1111832857131958
			],
			"min":[
				-4.120362281799316,
				-0.7896578311920166,
				-1.1111832857131958
			],
			"type":"VEC3"
		},
		{
			"bufferView":32,
			"componentType":5126,
			"count":436,
			"type":"VEC3"
		},
		{
			"bufferView":33,
			"componentType":5126,
			"count":436,
			"type":"VEC2"
		},
		{
			"bufferView":34,
			"componentType":5123,
			"count":1632,
			"type":"SCALAR"
		},
		{
			"bufferView":35,
			"componentType":5126,
			"count":56,
			"max":[
				-4.011066913604736,
				-0.557657778263092,
				0.7752469778060913
			],
			"min":[
				-4.120362281799316,
				-0.6669529676437378,
				-0.7752471566200256
			],
			"type":"VEC3"
		},
		{
			"bufferView":36,
			"componentType":5126,
			"count":56,
			"type":"VEC3"
		},
		{
			"bufferView":37,
			"componentType":5126,
			"count":56,
			"type":"VEC2"
		},
		{
			"bufferView":38,
			"componentType":5123,
			"count":120,
			"type":"SCALAR"
		},
		{
			"bufferView":39,
			"componentType":5126,
			"count":596,
			"max":[
				0.6125810146331787,
				0.7755804061889648,
				1.2217899560928345
			],
			"min":[
				-0.8369540572166443,
				0.21815119683742523,
				-1.2217899560928345
			],
			"type":"VEC3"
		},
		{
			"bufferView":40,
			"componentType":5126,
			"count":596,
			"type":"VEC3"
		},
		{
			"bufferView":41,
			"componentType":5126,
			"count":596,
			"type":"VEC2"
		},
		{
			"bufferView":42,
			"componentType":5123,
			"count":1416,
			"type":"SCALAR"
		}
	],
	"bufferViews":[
		{
			"buffer":0,
			"byteLength":1130784,
			"byteOffset":0,
			"target":34962
		},
		{
			"buffer":0,
			"byteLength":1130784,
			"byteOffset":1130784,
			"target":34962
		},
		{
			"buffer":0,
			"byteLength":753856,
			"byteOffset":2261568,
			"target":34962
		},
		{
			"buffer":0,
			"byteLength":733920,
			"byteOffset":3015424,
			"target":34963
		},
		{
			"buffer":0,
			"byteLength":145272,
			"byteOffset":3749344,
			"target":34962
		},
		{
			"buffer":0,
			"byteLength":145272,
			"byteOffset":3894616,
			"target":34962
		},
		{
			"buffer":0,
			"byteLength":96848,
			"byteOffset":4039888,
			"target":34962
		},
		{
			"buffer":0,
			"byteLength":84336,
			"byteOffset":4136736,
			"target":34963
		},
		{
			"buffer":0,
			"byteLength":1130640,
			"byteOffset":4221072,
			"target":34962
		},
		{
			"buffer":0,
			"byteLength":1130640,
			"byteOffset":5351712,
			"target":34962
		},
		{
			"buffer":0,
			"byteLength":753760,
			"byteOffset":6482352,
			"target":34962
		},
		{
			"buffer":0,
			"byteLength":733920,
			"byteOffset":7236112,
			"target":34963
		},
		{
			"buffer":0,
			"byteLength":145272,
			"byteOffset":7970032,
			"target":34962
		},
		{
			"buffer":0,
			"byteLength":145272,
			"byteOffset":8115304,
			"target":34962
		},
		{
			"buffer":0,
			"byteLength":96848,
			"byteOffset":8260576,
			"target":34962
		},
		{
			"buffer":0,
			"byteLength":240036,
			"byteOffset":8357424,
			"target":34962
		},
		{
			"buffer":0,
			"byteLength":240036,
			"byteOffset":8597460,
			"target":34962
		},
		{
			"buffer":0,
			"byteLength":160024,
			"byteOffset":8837496,
			"target":34962
		},
		{
			"buffer":0,
			"byteLength":100620,
			"byteOffset":8997520,
			"target":34963
		},
		{
			"buffer":0,
			"byteLength":58872,
			"byteOffset":9098140,
			"target":34962
		},
		{
			"buffer":0,
			"byteLength":58872,
			"byteOffset":9157012,
			"target":34962
		},
		{
			"buffer":0,
			"byteLength":39248,
			"byteOffset":9215884,
			"target":34962
		},
		{
			"buffer":0,
			"byteLength":21234,
			"byteOffset":9255132,
			"target":34963
		},
		{
			"buffer":0,
			"byteLength":37572,
			"byteOffset":9276368,
			"target":34962
		},
		{
			"buffer":0,
			"byteLength":37572,
			"byteOffset":9313940,
			"target":34962
		},
		{
			"buffer":0,
			"byteLength":25048,
			"byteOffset":9351512,
			"target":34962
		},
		{
			"buffer":0,
			"byteLength":20784,
			"byteOffset":9376560,
			"target":34963
		},
		{
			"buffer":0,
			"byteLength":9648,
			"byteOffset":9397344,
			"target":34962
		},
		{
			"buffer":0,
			"byteLength":9648,
			"byteOffset":9406992,
			"target":34962
		},
		{
			"buffer":0,
			"byteLength":6432,
			"byteOffset":9416640,
			"target":34962
		},
		{
			"buffer":0,
			"byteLength":7584,
			"byteOffset":9423072,
			"target":34963
		},
		{
			"buffer":0,
			"byteLength":5232,
			"byteOffset":9430656,
			"target":34962
		},
		{
			"buffer":0,
			"byteLength":5232,
			"byteOffset":9435888,
			"target":34962
		},
		{
			"buffer":0,
			"byteLength":3488,
			"byteOffset":9441120,
			"target":34962
		},
		{
			"buffer":0,
			"byteLength":3264,
			"byteOffset":9444608,
			"target":34963
		},
		{
			"buffer":0,
			"byteLength":672,
			"byteOffset":9447872,
			"target":34962
		},
		{
			"buffer":0,
			"byteLength":672,
			"byteOffset":9448544,
			"target":34962
		},
		{
			"buffer":0,
			"byteLength":448,
			"byteOffset":9449216,
			"target":34962
		},
		{
			"buffer":0,
			"byteLength":240,
			"byteOffset":9449664,
			"target":34963
		},
		{
			"buffer":0,
			"byteLength":7152,
			"byteOffset":9449904,
			"target":34962
		},
		{
			"buffer":0,
			"byteLength":7152,
			"byteOffset":9457056,
			"target":34962
		},
		{
			"buffer":0,
			"byteLength":4768,
			"byteOffset":9464208,
			"target":34962
		},
		{
			"buffer":0,
			"byteLength":2832,
			"byteOffset":9468976,
			"target":34963
		}
	],
	"buffers":[
		{
			"byteLength":9471808,
			"uri":"L300.bin"
		}
	]
}
