{
	"asset":{
		"generator":"Khronos glTF Blender I/O v5.0.21",
		"version":"2.0"
	},
	"scene":0,
	"scenes":[
		{
			"name":"Scene",
			"nodes":[
				0
			]
		}
	],
	"nodes":[
		{
			"mesh":0,
			"name":"Cube"
		}
	],
	"materials":[
		{
			"doubleSided":true,
			"name":"Buah",
			"pbrMetallicRoughness":{
				"baseColorFactor":[
					0.177888423204422,
					0.03820430859923363,
					0.0331047847867012,
					1
				],
				"metallicFactor":0,
				"roughnessFactor":0.5
			}
		},
		{
			"doubleSided":true,
			"name":"Material",
			"pbrMetallicRoughness":{
				"baseColorFactor":[
					0.22696584463119507,
					0.11193232238292694,
					0.024157658219337463,
					1
				],
				"metallicFactor":0,
				"roughnessFactor":0.5
			}
		},
		{
			"doubleSided":true,
			"name":"Material.003",
			"pbrMetallicRoughness":{
				"baseColorFactor":[
					0.3559487462043762,
					0.2527841627597809,
					0.14208820462226868,
					1
				],
				"metallicFactor":0,
				"roughnessFactor":0.5
			}
		},
		{
			"doubleSided":true,
			"name":"Ujung",
			"pbrMetallicRoughness":{
				"baseColorFactor":[
					0.3094688355922699,
					0.1529259979724884,
					0.07818744331598282,
					1
				],
				"metallicFactor":0,
				"roughnessFactor":0.5
			}
		},
		{
			"doubleSided":true,
			"name":"Duri",
			"pbrMetallicRoughness":{
				"baseColorFactor":[
					0.18781530857086182,
					0.10968054831027985,
					0.07873213291168213,
					1
				],
				"metallicFactor":0,
				"roughnessFactor":0.5
			}
		}
	],
	"meshes":[
		{
			"name":"Cube.001",
			"primitives":[
				{
					"attributes":{
						"POSITION":0,
						"NORMAL":1,
						"TEXCOORD_0":2
					},
					"indices":3,
					"material":0
				},
				{
					"attributes":{
						"POSITION":4,
						"NORMAL":5,
						"TEXCOORD_0":6
					},
					"indices":7,
					"material":1
				},
				{
					"attributes":{
						"POSITION":8,
						"NORMAL":9,
						"TEXCOORD_0":10
					},
					"indices":11,
					"material":2
				},
				{
					"attributes":{
						"POSITION":12,
						"NORMAL":13,
						"TEXCOORD_0":14
					},
					"indices":15,
					"material":3
				},
				{
					"attributes":{
						"POSITION":16,
						"NORMAL":17,
						"TEXCOORD_0":18
					},
					"indices":19,
					"material":4
				}
			]
		}
	],
	"accessors":[
		{
			"bufferView":0,
			"componentType":5126,
			"count":48992,
			"max":[
				0.20851284265518188,
				0.24585382640361786,
				0.18776482343673706
			],
			"min":[
				-0.22214718163013458,
				-0.26020148396492004,
				-0.19685302674770355
			],
			"type":"VEC3"
		},
		{
			"bufferView":1,
			"componentType":5126,
			"count":48992,
			"type":"VEC3"
		},
		{
			"bufferView":2,
			"componentType":5126,
			"count":48992,
			"type":"VEC2"
		},
		{
			"bufferView":3,
			"componentType":5123,
			"count":193146,
			"type":"SCALAR"
		},
		{
			"bufferView":4,
			"componentType":5126,
			"count":127,
			"max":[
				0.05270124226808548,
				0.3398812711238861,
				0.047442931681871414
			],
			"min":[
				-0.05289391800761223,
				0.2137322574853897,
				-0.04744291678071022
			],
			"type":"VEC3"
		},
		{
			"bufferView":5,
			"componentType":5126,
			"count":127,
			"type":"VEC3"
		},
		{
			"bufferView":6,
			"componentType":5126,
			"count":127,
			"type":"VEC2"
		},
		{
			"bufferView":7,
			"componentType":5123,
			"count":468,
			"type":"SCALAR"
		},
		{
			"bufferView":8,
			"componentType":5126,
			"count":36,
			"max":[
				0.03552371263504028,
				0.3398812711238861,
				0.03215547651052475
			],
			"min":[
				-0.037353042513132095,
				0.33647599816322327,
				-0.03214975818991661
			],
			"type":"VEC3"
		},
		{
			"bufferView":9,
			"componentType":5126,
			"count":36,
			"type":"VEC3"
		},
		{
			"bufferView":10,
			"componentType":5126,
			"count":36,
			"type":"VEC2"
		},
		{
			"bufferView":11,
			"componentType":5123,
			"count":66,
			"type":"SCALAR"
		},
		{
			"bufferView":12,
			"componentType":5126,
			"count":20357,
			"max":[
				0.21334372460842133,
				0.2503948509693146,
				0.19250856339931488
			],
			"min":[
				-0.22698523104190826,
				-0.26406726241111755,
				-0.20126619935035706
			],
			"type":"VEC3"
		},
		{
			"bufferView":13,
			"componentType":5126,
			"count":20357,
			"type":"VEC3"
		},
		{
			"bufferView":14,
			"componentType":5126,
			"count":20357,
			"type":"VEC2"
		},
		{
			"bufferView":15,
			"componentType":5123,
			"count":31974,
			"type":"SCALAR"
		},
		{
			"bufferView":16,
			"componentType":5126,
			"count":5196,
			"max":[
				0.24706505239009857,
				0.24039003252983093,
				0.2159692645072937
			],
			"min":[
				-0.25306642055511475,
				-0.27582961320877075,
				-0.2263132482767105
			],
			"type":"VEC3"
		},
		{
			"bufferView":17,
			"componentType":5126,
			"count":5196,
			"type":"VEC3"
		},
		{
			"bufferView":18,
			"componentType":5126,
			"count":5196,
			"type":"VEC2"
		},
		{
			"bufferView":19,
			"componentType":5123,
			"count":9963,
			"type":"SCALAR"
		}
	],
	"bufferViews":[
		{
			"buffer":0,
			"byteLength":587904,
			"byteOffset":0,
			"target":34962
		},
		{
			"buffer":0,
			"byteLength":587904,
			"byteOffset":587904,
			"target":34962
		},
		{
			"buffer":0,
			"byteLength":391936,
			"byteOffset":1175808,
			"target":34962
		},
		{
			"buffer":0,
			"byteLength":386292,
			"byteOffset":1567744,
			"target":34963
		},
		{
			"buffer":0,
			"byteLength":1524,
			"byteOffset":1954036,
			"target":34962
		},
		{
			"buffer":0,
			"byteLength":1524,
			"byteOffset":1955560,
			"target":34962
		},
		{
			"buffer":0,
			"byteLength":1016,
			"byteOffset":1957084,
			"target":34962
		},
		{
			"buffer":0,
			"byteLength":936,
			"byteOffset":1958100,
			"target":34963
		},
		{
			"buffer":0,
			"byteLength":432,
			"byteOffset":1959036,
			"target":34962
		},
		{
			"buffer":0,
			"byteLength":432,
			"byteOffset":1959468,
			"target":34962
		},
		{
			"buffer":0,
			"byteLength":288,
			"byteOffset":1959900,
			"target":34962
		},
		{
			"buffer":0,
			"byteLength":132,
			"byteOffset":1960188,
			"target":34963
		},
		{
			"buffer":0,
			"byteLength":244284,
			"byteOffset":1960320,
			"target":34962
		},
		{
			"buffer":0,
			"byteLength":244284,
			"byteOffset":2204604,
			"target":34962
		},
		{
			"buffer":0,
			"byteLength":162856,
			"byteOffset":2448888,
			"target":34962
		},
		{
			"buffer":0,
			"byteLength":63948,
			"byteOffset":2611744,
			"target":34963
		},
		{
			"buffer":0,
			"byteLength":62352,
			"byteOffset":2675692,
			"target":34962
		},
		{
			"buffer":0,
			"byteLength":62352,
			"byteOffset":2738044,
			"target":34962
		},
		{
			"buffer":0,
			"byteLength":41568,
			"byteOffset":2800396,
			"target":34962
		},
		{
			"buffer":0,
			"byteLength":19926,
			"byteOffset":2841964,
			"target":34963
		}
	],
	"buffers":[
		{
			"byteLength":2861892,
			"uri":"Buah_Sawit.bin"
		}
	]
}
