{
	"asset":{
		"generator":"Khronos glTF Blender I/O v5.0.21",
		"version":"2.0"
	},
	"scene":0,
	"scenes":[
		{
			"name":"Cylinder.008",
			"nodes":[
				0,
				1,
				2,
				3,
				4
			]
		}
	],
	"nodes":[
		{
			"mesh":0,
			"name":"Bolt ",
			"translation":[
				-0.013774183578789234,
				0.029249941930174828,
				0
			]
		},
		{
			"mesh":1,
			"name":"hammer",
			"translation":[
				-0.07044627517461777,
				0.004535621497780085,
				-0.0005689606186933815
			]
		},
		{
			"mesh":2,
			"name":"Fire Mode Selector",
			"rotation":[
				0.7071068286895752,
				0,
				0,
				0.7071068286895752
			],
			"translation":[
				-0.14822417497634888,
				0.017945824190974236,
				0.01955917477607727
			]
		},
		{
			"mesh":3,
			"name":"Stell 7.62mm 30-Round Magazines.blend.001",
			"translation":[
				-0.06592684239149094,
				-0.012434417381882668,
				0
			]
		},
		{
			"mesh":4,
			"name":"AKM",
			"translation":[
				-0.17502310872077942,
				0.017921246588230133,
				0
			]
		}
	],
	"materials":[
		{
			"doubleSided":true,
			"name":"Baja.001",
			"pbrMetallicRoughness":{
				"baseColorFactor":[
					0.012981737963855267,
					0.012981737963855267,
					0.01298176497220993,
					1
				],
				"metallicFactor":0,
				"roughnessFactor":0.5
			}
		},
		{
			"doubleSided":true,
			"name":"Silver",
			"pbrMetallicRoughness":{
				"baseColorFactor":[
					0.800000011920929,
					0.800000011920929,
					0.800000011920929,
					1
				],
				"roughnessFactor":0.5
			}
		},
		{
			"doubleSided":true,
			"name":"Baja(Pin)",
			"pbrMetallicRoughness":{
				"baseColorFactor":[
					0.038141828030347824,
					0.03814185410737991,
					0.043015602976083755,
					1
				],
				"metallicFactor":0,
				"roughnessFactor":0.5
			}
		},
		{
			"doubleSided":true,
			"name":"Baja",
			"pbrMetallicRoughness":{
				"baseColorFactor":[
					0.005054717883467674,
					0.005332742817699909,
					0.004988966975361109,
					1
				],
				"metallicFactor":0,
				"roughnessFactor":0.5
			}
		},
		{
			"doubleSided":true,
			"name":"Kayu",
			"pbrMetallicRoughness":{
				"baseColorFactor":[
					0.09530751407146454,
					0.019382329657673836,
					0,
					1
				],
				"metallicFactor":0,
				"roughnessFactor":0.5
			}
		}
	],
	"meshes":[
		{
			"name":"Cube.035",
			"primitives":[
				{
					"attributes":{
						"POSITION":0,
						"NORMAL":1,
						"TEXCOORD_0":2
					},
					"indices":3,
					"material":0
				},
				{
					"attributes":{
						"POSITION":4,
						"NORMAL":5,
						"TEXCOORD_0":6
					},
					"indices":7,
					"material":1
				}
			]
		},
		{
			"name":"Cylinder",
			"primitives":[
				{
					"attributes":{
						"POSITION":8,
						"NORMAL":9,
						"TEXCOORD_0":10
					},
					"indices":11,
					"material":2
				}
			]
		},
		{
			"name":"Cylinder.003",
			"primitives":[
				{
					"attributes":{
						"POSITION":12,
						"NORMAL":13,
						"TEXCOORD_0":14
					},
					"indices":15,
					"material":3
				},
				{
					"attributes":{
						"POSITION":16,
						"NORMAL":17,
						"TEXCOORD_0":18
					},
					"indices":19,
					"material":0
				}
			]
		},
		{
			"name":"Cube.001",
			"primitives":[
				{
					"attributes":{
						"POSITION":20,
						"NORMAL":21,
						"TEXCOORD_0":22
					},
					"indices":23,
					"material":3
				}
			]
		},
		{
			"name":"Cube.002",
			"primitives":[
				{
					"attributes":{
						"POSITION":24,
						"NORMAL":25,
						"TEXCOORD_0":26
					},
					"indices":27,
					"material":3
				},
				{
					"attributes":{
						"POSITION":28,
						"NORMAL":29,
						"TEXCOORD_0":30
					},
					"indices":31,
					"material":4
				},
				{
					"attributes":{
						"POSITION":32,
						"NORMAL":33,
						"TEXCOORD_0":34
					},
					"indices":35,
					"material":0
				},
				{
					"attributes":{
						"POSITION":36,
						"NORMAL":37,
						"TEXCOORD_0":38
					},
					"indices":39,
					"material":2
				}
			]
		}
	],
	"accessors":[
		{
			"bufferView":0,
			"componentType":5126,
			"count":955,
			"max":[
				0.144733265042305,
				0.03161989524960518,
				0.04586091637611389
			],
			"min":[
				-0.05041669309139252,
				-0.020950734615325928,
				-0.016889143735170364
			],
			"type":"VEC3"
		},
		{
			"bufferView":1,
			"componentType":5126,
			"count":955,
			"type":"VEC3"
		},
		{
			"bufferView":2,
			"componentType":5126,
			"count":955,
			"type":"VEC2"
		},
		{
			"bufferView":3,
			"componentType":5123,
			"count":2394,
			"type":"SCALAR"
		},
		{
			"bufferView":4,
			"componentType":5126,
			"count":1786,
			"max":[
				0.2896033227443695,
				0.03141991049051285,
				0.007000005338340998
			],
			"min":[
				0.14465154707431793,
				0.01741989329457283,
				-0.006999994162470102
			],
			"type":"VEC3"
		},
		{
			"bufferView":5,
			"componentType":5126,
			"count":1786,
			"type":"VEC3"
		},
		{
			"bufferView":6,
			"componentType":5126,
			"count":1786,
			"type":"VEC2"
		},
		{
			"bufferView":7,
			"componentType":5123,
			"count":4572,
			"type":"SCALAR"
		},
		{
			"bufferView":8,
			"componentType":5126,
			"count":612,
			"max":[
				0.0064835697412490845,
				0.03728703781962395,
				0.014740543439984322
			],
			"min":[
				-0.009462621062994003,
				-0.006474695168435574,
				-0.014740543439984322
			],
			"type":"VEC3"
		},
		{
			"bufferView":9,
			"componentType":5126,
			"count":612,
			"type":"VEC3"
		},
		{
			"bufferView":10,
			"componentType":5126,
			"count":612,
			"type":"VEC2"
		},
		{
			"bufferView":11,
			"componentType":5123,
			"count":1188,
			"type":"SCALAR"
		},
		{
			"bufferView":12,
			"componentType":5126,
			"count":723,
			"max":[
				0.09780871868133545,
				0.003126687603071332,
				0.010983808897435665
			],
			"min":[
				-0.012140716426074505,
				-0.002373312832787633,
				-0.021504491567611694
			],
			"type":"VEC3"
		},
		{
			"bufferView":13,
			"componentType":5126,
			"count":723,
			"type":"VEC3"
		},
		{
			"bufferView":14,
			"componentType":5126,
			"count":723,
			"type":"VEC2"
		},
		{
			"bufferView":15,
			"componentType":5123,
			"count":1860,
			"type":"SCALAR"
		},
		{
			"bufferView":16,
			"componentType":5126,
			"count":482,
			"max":[
				0.005071236286312342,
				0.00293957837857306,
				0.004960045218467712
			],
			"min":[
				-0.00507129542529583,
				0.0014110625488683581,
				-0.004960159305483103
			],
			"type":"VEC3"
		},
		{
			"bufferView":17,
			"componentType":5126,
			"count":482,
			"type":"VEC3"
		},
		{
			"bufferView":18,
			"componentType":5126,
			"count":482,
			"type":"VEC2"
		},
		{
			"bufferView":19,
			"componentType":5123,
			"count":1716,
			"type":"SCALAR"
		},
		{
			"bufferView":20,
			"componentType":5126,
			"count":7802,
			"max":[
				0.15532968938350677,
				0.03561051934957504,
				0.015249988064169884
			],
			"min":[
				-0.004116634838283062,
				-0.1738046258687973,
				-0.015250015072524548
			],
			"type":"VEC3"
		},
		{
			"bufferView":21,
			"componentType":5126,
			"count":7802,
			"type":"VEC3"
		},
		{
			"bufferView":22,
			"componentType":5126,
			"count":7802,
			"type":"VEC2"
		},
		{
			"bufferView":23,
			"componentType":5123,
			"count":21306,
			"type":"SCALAR"
		},
		{
			"bufferView":24,
			"componentType":5126,
			"count":25438,
			"max":[
				0.6196905970573425,
				0.061794131994247437,
				0.018960081040859222
			],
			"min":[
				-0.26030847430229187,
				-0.0806574821472168,
				-0.018899405375123024
			],
			"type":"VEC3"
		},
		{
			"bufferView":25,
			"componentType":5126,
			"count":25438,
			"type":"VEC3"
		},
		{
			"bufferView":26,
			"componentType":5126,
			"count":25438,
			"type":"VEC2"
		},
		{
			"bufferView":27,
			"componentType":5123,
			"count":73833,
			"type":"SCALAR"
		},
		{
			"bufferView":28,
			"componentType":5126,
			"count":2566,
			"max":[
				0.37699583172798157,
				0.051764845848083496,
				0.021608959883451462
			],
			"min":[
				-0.2547118365764618,
				-0.12981262803077698,
				-0.021608958020806313
			],
			"type":"VEC3"
		},
		{
			"bufferView":29,
			"componentType":5126,
			"count":2566,
			"type":"VEC3"
		},
		{
			"bufferView":30,
			"componentType":5126,
			"count":2566,
			"type":"VEC2"
		},
		{
			"bufferView":31,
			"componentType":5123,
			"count":9456,
			"type":"SCALAR"
		},
		{
			"bufferView":32,
			"componentType":5126,
			"count":13042,
			"max":[
				0.5919517278671265,
				0.05379098653793335,
				0.018500003963708878
			],
			"min":[
				-0.025624949485063553,
				-0.0465506911277771,
				-0.01849999837577343
			],
			"type":"VEC3"
		},
		{
			"bufferView":33,
			"componentType":5126,
			"count":13042,
			"type":"VEC3"
		},
		{
			"bufferView":34,
			"componentType":5126,
			"count":13042,
			"type":"VEC2"
		},
		{
			"bufferView":35,
			"componentType":5123,
			"count":42000,
			"type":"SCALAR"
		},
		{
			"bufferView":36,
			"componentType":5126,
			"count":1366,
			"max":[
				0.5834707021713257,
				0.019623031839728355,
				0.0062500047497451305
			],
			"min":[
				-0.07120862603187561,
				0.001077861525118351,
				-0.006249997299164534
			],
			"type":"VEC3"
		},
		{
			"bufferView":37,
			"componentType":5126,
			"count":1366,
			"type":"VEC3"
		},
		{
			"bufferView":38,
			"componentType":5126,
			"count":1366,
			"type":"VEC2"
		},
		{
			"bufferView":39,
			"componentType":5123,
			"count":4476,
			"type":"SCALAR"
		}
	],
	"bufferViews":[
		{
			"buffer":0,
			"byteLength":11460,
			"byteOffset":0,
			"target":34962
		},
		{
			"buffer":0,
			"byteLength":11460,
			"byteOffset":11460,
			"target":34962
		},
		{
			"buffer":0,
			"byteLength":7640,
			"byteOffset":22920,
			"target":34962
		},
		{
			"buffer":0,
			"byteLength":4788,
			"byteOffset":30560,
			"target":34963
		},
		{
			"buffer":0,
			"byteLength":21432,
			"byteOffset":35348,
			"target":34962
		},
		{
			"buffer":0,
			"byteLength":21432,
			"byteOffset":56780,
			"target":34962
		},
		{
			"buffer":0,
			"byteLength":14288,
			"byteOffset":78212,
			"target":34962
		},
		{
			"buffer":0,
			"byteLength":9144,
			"byteOffset":92500,
			"target":34963
		},
		{
			"buffer":0,
			"byteLength":7344,
			"byteOffset":101644,
			"target":34962
		},
		{
			"buffer":0,
			"byteLength":7344,
			"byteOffset":108988,
			"target":34962
		},
		{
			"buffer":0,
			"byteLength":4896,
			"byteOffset":116332,
			"target":34962
		},
		{
			"buffer":0,
			"byteLength":2376,
			"byteOffset":121228,
			"target":34963
		},
		{
			"buffer":0,
			"byteLength":8676,
			"byteOffset":123604,
			"target":34962
		},
		{
			"buffer":0,
			"byteLength":8676,
			"byteOffset":132280,
			"target":34962
		},
		{
			"buffer":0,
			"byteLength":5784,
			"byteOffset":140956,
			"target":34962
		},
		{
			"buffer":0,
			"byteLength":3720,
			"byteOffset":146740,
			"target":34963
		},
		{
			"buffer":0,
			"byteLength":5784,
			"byteOffset":150460,
			"target":34962
		},
		{
			"buffer":0,
			"byteLength":5784,
			"byteOffset":156244,
			"target":34962
		},
		{
			"buffer":0,
			"byteLength":3856,
			"byteOffset":162028,
			"target":34962
		},
		{
			"buffer":0,
			"byteLength":3432,
			"byteOffset":165884,
			"target":34963
		},
		{
			"buffer":0,
			"byteLength":93624,
			"byteOffset":169316,
			"target":34962
		},
		{
			"buffer":0,
			"byteLength":93624,
			"byteOffset":262940,
			"target":34962
		},
		{
			"buffer":0,
			"byteLength":62416,
			"byteOffset":356564,
			"target":34962
		},
		{
			"buffer":0,
			"byteLength":42612,
			"byteOffset":418980,
			"target":34963
		},
		{
			"buffer":0,
			"byteLength":305256,
			"byteOffset":461592,
			"target":34962
		},
		{
			"buffer":0,
			"byteLength":305256,
			"byteOffset":766848,
			"target":34962
		},
		{
			"buffer":0,
			"byteLength":203504,
			"byteOffset":1072104,
			"target":34962
		},
		{
			"buffer":0,
			"byteLength":147666,
			"byteOffset":1275608,
			"target":34963
		},
		{
			"buffer":0,
			"byteLength":30792,
			"byteOffset":1423276,
			"target":34962
		},
		{
			"buffer":0,
			"byteLength":30792,
			"byteOffset":1454068,
			"target":34962
		},
		{
			"buffer":0,
			"byteLength":20528,
			"byteOffset":1484860,
			"target":34962
		},
		{
			"buffer":0,
			"byteLength":18912,
			"byteOffset":1505388,
			"target":34963
		},
		{
			"buffer":0,
			"byteLength":156504,
			"byteOffset":1524300,
			"target":34962
		},
		{
			"buffer":0,
			"byteLength":156504,
			"byteOffset":1680804,
			"target":34962
		},
		{
			"buffer":0,
			"byteLength":104336,
			"byteOffset":1837308,
			"target":34962
		},
		{
			"buffer":0,
			"byteLength":84000,
			"byteOffset":1941644,
			"target":34963
		},
		{
			"buffer":0,
			"byteLength":16392,
			"byteOffset":2025644,
			"target":34962
		},
		{
			"buffer":0,
			"byteLength":16392,
			"byteOffset":2042036,
			"target":34962
		},
		{
			"buffer":0,
			"byteLength":10928,
			"byteOffset":2058428,
			"target":34962
		},
		{
			"buffer":0,
			"byteLength":8952,
			"byteOffset":2069356,
			"target":34963
		}
	],
	"buffers":[
		{
			"byteLength":2078308,
			"uri":"AKM.bin"
		}
	]
}
